<?xml version="1.0" encoding="UTF-8"?>
<svg xmlns="http://www.w3.org/2000/svg" viewBox="0 0 48 48" width="48" height="48" aria-hidden="true">
  <rect width="48" height="48" rx="8" fill="none"/>
  <path d="M31.4 14.2c0 0 0 9.2 6.2 11.4V28c-4.1-1.4-6.9-5.2-7.5-9.8h-3.2v13.5c0 3.6-2.9 6.6-6.6 6.6-3.7 0-6.6-3-6.6-6.6s2.9-6.6 6.6-6.6c1.4 0 2.7.4 3.8 1.1V16.8c-1.1-.7-2.5-1.1-3.8-1.1-5 0-9 4-9 9s4 9 9 9c5 0 9-4 9-9V14.2z" fill="#010101"/>
  <path d="M31.4 14.2v3.1a9.3 9.3 0 0 0 6.2 1.9v-4.7c-2.1 0-4.1-.7-6.2-1.9z" fill="#69C9D0"/>
  <path d="M31.4 14.2v3.1c-0.2 0-0.3 0-0.5-.1-1.2-.3-2.5-.9-3.6-1.7V14.2c1.1.7 2.4 1.4 3.6 1.7.2.1.3.1.5.1z" fill="#EE1D52"/>
</svg>